<?xml version="1.0" encoding="utf-8"?>
<!-- Generator: Adobe Illustrator 24.1.0, SVG Export Plug-In . SVG Version: 6.00 Build 0)  -->
<svg version="1.1" id="Capa_1" xmlns="http://www.w3.org/2000/svg" xmlns:xlink="http://www.w3.org/1999/xlink" x="0px" y="0px"
	 viewBox="0 0 792 727.1" style="enable-background:new 0 0 792 727.1;" xml:space="preserve">
<style type="text/css">
	.st0{display:none;fill:url(#SVGID_1_);}
	.st1{fill:#5BA332;stroke:#74B23B;stroke-miterlimit:10;}
	.st2{fill:#5BA332;}
	.st3{fill:url(#SVGID_2_);}
	.st4{fill:url(#SVGID_3_);}
	.st5{fill:url(#SVGID_4_);}
	.st6{fill:url(#SVGID_5_);}
	.st7{fill:url(#SVGID_6_);}
	.st8{fill:url(#SVGID_7_);}
	.st9{fill:#F9AE18;}
	.st10{fill:#74B23B;}
	.st11{fill:#1D71B8;}
	.st12{display:none;}
	.st13{display:inline;fill:url(#SVGID_8_);}
	.st14{display:inline;fill:url(#SVGID_9_);}
	.st15{display:inline;fill:url(#SVGID_10_);}
	.st16{fill:#2076BA;}
	.st17{display:none;fill:url(#SVGID_11_);}
	.st18{display:none;opacity:0.21;}
	.st19{display:inline;fill:url(#SVGID_12_);}
	.st20{display:inline;fill:url(#SVGID_13_);}
	.st21{display:inline;fill:url(#SVGID_14_);}
	.st22{display:inline;fill:url(#SVGID_15_);}
	.st23{display:none;fill:none;stroke:#74B23B;stroke-miterlimit:10;}
	.st24{display:none;fill:#74B23B;}
	.st25{font-family:'Montserrat-SemiBold';}
	.st26{font-size:31px;}
	.st27{letter-spacing:15;}
</style>
<radialGradient id="SVGID_1_" cx="459.4681" cy="282.2786" r="491.0094" gradientTransform="matrix(0.9911 0 0 0.9072 -59.3694 107.4783)" gradientUnits="userSpaceOnUse">
	<stop  offset="0" style="stop-color:#FFFFFF"/>
	<stop  offset="0.5139" style="stop-color:#FDFDFD"/>
	<stop  offset="0.7317" style="stop-color:#F6F6F6"/>
	<stop  offset="0.893" style="stop-color:#E9E9E9"/>
	<stop  offset="1" style="stop-color:#DCDCDC"/>
</radialGradient>
<rect class="st0" width="792" height="727.1"/>
<g>
	<g>
		<path class="st1" d="M335.7,413.4l1.4-0.9c1,1.9,2.2,2.8,3.5,2.8c0.6,0,1.1-0.1,1.6-0.4c0.5-0.3,0.9-0.6,1.1-1.1
			c0.3-0.4,0.4-0.9,0.4-1.4c0-0.6-0.2-1.1-0.6-1.7c-0.5-0.8-1.5-1.5-2.9-2.3c-1.4-1.1-2.3-1.8-2.6-2.3c-0.6-0.8-0.9-1.7-0.9-2.6
			c0-0.7,0.2-1.4,0.5-2c0.3-0.6,0.8-1.1,1.5-1.4c0.6-0.4,1.3-0.5,2.1-0.5c0.8,0,1.5,0.2,2.2,0.6c0.7,0.4,1.4,1.1,2.2,2.2l-1.4,1
			c-0.6-0.8-1.2-1.4-1.6-1.7c-0.4-0.3-0.9-0.4-1.5-0.4c-0.7,0-1.2,0.2-1.7,0.6c-0.4,0.4-0.6,0.9-0.6,1.5c0,0.4,0.1,0.7,0.2,1.1
			c0.2,0.3,0.4,0.7,0.8,1.1c0.2,0.2,0.9,0.8,2.2,1.7c1.5,1.1,2.5,2,3,2.7c0.5,0.7,0.8,1.5,0.8,2.3c0,1.2-0.5,2.3-1.4,3.2
			c-0.9,0.9-2.1,1.4-3.4,1.4c-1,0-2-0.3-2.8-0.8C337.1,415.6,336.4,414.7,335.7,413.4z"/>
		<path class="st1" d="M381.1,399.6c2.5,0,4.7,0.9,6.4,2.6c1.7,1.7,2.6,3.8,2.6,6.3c0,2.5-0.9,4.5-2.6,6.1c-1.7,1.6-3.8,2.4-6.3,2.4
			c-2.5,0-4.6-0.9-6.3-2.6c-1.7-1.7-2.6-3.6-2.6-5.8c0-1.6,0.4-3.1,1.2-4.5c0.8-1.4,1.9-2.5,3.2-3.3
			C378,400,379.5,399.6,381.1,399.6z M381.1,401.3c-1.2,0-2.4,0.3-3.5,1c-1.1,0.6-2,1.5-2.6,2.6c-0.6,1.1-0.9,2.3-0.9,3.7
			c0,2,0.7,3.6,2.1,4.9c1.4,1.2,3.1,1.9,5,1.9c1.3,0,2.5-0.3,3.6-1c1.1-0.6,2-1.5,2.6-2.6c0.6-1.1,0.9-2.2,0.9-3.3
			c0-1.3-0.3-2.5-0.9-3.6c-0.6-1.1-1.5-2-2.6-2.6C383.6,401.6,382.4,401.3,381.1,401.3z"/>
		<path class="st1" d="M417.6,399.9h1.7v15.3h6.5v1.6h-8.2V399.9z"/>
		<path class="st1" d="M452.8,399.7h1.7v10.2c0,1.2,0,2,0.1,2.3c0.1,0.7,0.3,1.2,0.6,1.7c0.3,0.4,0.8,0.8,1.4,1.1
			c0.6,0.3,1.3,0.4,1.9,0.4c0.6,0.1,1.3,0.1,2.3-0.1c1-0.2,1.6-0.6,2-1.1c0.3-0.5,0.6-1,0.8-1.6c0.1-0.4,0.2-1.3,0.2-2.6v-10.2h1.7
			v10.2c0,1.5-0.1,2.7-0.4,3.7c-0.3,0.9-0.9,1.7-1.8,2.4c-0.9,0.7-2.4,1-4.6,1c-1.4,0-2.5-0.3-3.5-1c-1-0.7-1.6-1.5-1.9-2.6
			c-0.2-0.7-0.3-1.9-0.3-3.6V399.7z"/>
		<path class="st1" d="M491.8,401.6v-1.6h9.3v1.6h-3.8v15.2h-1.7v-15.2H491.8z"/>
		<path class="st1" d="M527.5,399.9h1.7v16.9h-1.7V399.9z"/>
		<path class="st1" d="M565.3,399.6c2.5,0,4.7,0.9,6.4,2.6c1.7,1.7,2.6,3.8,2.6,6.3c0,2.5-0.9,4.5-2.6,6.1c-1.7,1.6-3.8,2.4-6.3,2.4
			c-2.5,0-4.6-0.9-6.3-2.6c-1.7-1.7-2.6-3.6-2.6-5.8c0-1.6,0.4-3.1,1.2-4.5c0.8-1.4,1.9-2.5,3.2-3.3
			C562.3,400,563.7,399.6,565.3,399.6z M565.4,401.3c-1.2,0-2.4,0.3-3.5,1c-1.1,0.6-2,1.5-2.6,2.6c-0.6,1.1-0.9,2.3-0.9,3.7
			c0,2,0.7,3.6,2.1,4.9c1.4,1.2,3.1,1.9,5,1.9c1.3,0,2.5-0.3,3.6-1c1.1-0.6,2-1.5,2.6-2.6c0.6-1.1,0.9-2.2,0.9-3.3
			c0-1.3-0.3-2.5-0.9-3.6c-0.6-1.1-1.5-2-2.6-2.6C567.9,401.6,566.7,401.3,565.4,401.3z"/>
		<path class="st1" d="M642.1,413.4l1.4-0.9c1,1.9,2.2,2.8,3.5,2.8c0.6,0,1.1-0.1,1.6-0.4c0.5-0.3,0.9-0.6,1.1-1.1
			c0.3-0.4,0.4-0.9,0.4-1.4c0-0.6-0.2-1.1-0.6-1.7c-0.5-0.8-1.5-1.5-2.9-2.3c-1.4-1.1-2.3-1.8-2.6-2.3c-0.6-0.8-0.9-1.7-0.9-2.6
			c0-0.7,0.2-1.4,0.5-2c0.3-0.6,0.8-1.1,1.5-1.4c0.6-0.4,1.3-0.5,2.1-0.5c0.8,0,1.5,0.2,2.2,0.6c0.7,0.4,1.4,1.1,2.2,2.2l-1.4,1
			c-0.6-0.8-1.2-1.4-1.6-1.7c-0.4-0.3-0.9-0.4-1.5-0.4c-0.7,0-1.2,0.2-1.7,0.6c-0.4,0.4-0.6,0.9-0.6,1.5c0,0.4,0.1,0.7,0.2,1.1
			c0.2,0.3,0.4,0.7,0.8,1.1c0.2,0.2,0.9,0.8,2.2,1.7c1.5,1.1,2.5,2,3,2.7c0.5,0.7,0.8,1.5,0.8,2.3c0,1.2-0.5,2.3-1.4,3.2
			c-0.9,0.9-2.1,1.4-3.4,1.4c-1,0-2-0.3-2.8-0.8C643.6,415.6,642.8,414.7,642.1,413.4z"/>
		<path class="st1" d="M601.9,416.8v-16.9h0.4l11.2,12.9v-12.9h1.7v16.9h-0.4l-11.1-12.8v12.8H601.9z"/>
	</g>
	<g>
		<path class="st2" d="M335.7,413.4l1.4-0.9c1,1.9,2.2,2.8,3.5,2.8c0.6,0,1.1-0.1,1.6-0.4c0.5-0.3,0.9-0.6,1.1-1.1
			c0.3-0.4,0.4-0.9,0.4-1.4c0-0.6-0.2-1.1-0.6-1.7c-0.5-0.8-1.5-1.5-2.9-2.3c-1.4-1.1-2.3-1.8-2.6-2.3c-0.6-0.8-0.9-1.7-0.9-2.6
			c0-0.7,0.2-1.4,0.5-2c0.3-0.6,0.8-1.1,1.5-1.4c0.6-0.4,1.3-0.5,2.1-0.5c0.8,0,1.5,0.2,2.2,0.6c0.7,0.4,1.4,1.1,2.2,2.2l-1.4,1
			c-0.6-0.8-1.2-1.4-1.6-1.7c-0.4-0.3-0.9-0.4-1.5-0.4c-0.7,0-1.2,0.2-1.7,0.6c-0.4,0.4-0.6,0.9-0.6,1.5c0,0.4,0.1,0.7,0.2,1.1
			c0.2,0.3,0.4,0.7,0.8,1.1c0.2,0.2,0.9,0.8,2.2,1.7c1.5,1.1,2.5,2,3,2.7c0.5,0.7,0.8,1.5,0.8,2.3c0,1.2-0.5,2.3-1.4,3.2
			c-0.9,0.9-2.1,1.4-3.4,1.4c-1,0-2-0.3-2.8-0.8C337.1,415.6,336.4,414.7,335.7,413.4z"/>
		<path class="st2" d="M381.1,399.6c2.5,0,4.7,0.9,6.4,2.6c1.7,1.7,2.6,3.8,2.6,6.3c0,2.5-0.9,4.5-2.6,6.1c-1.7,1.6-3.8,2.4-6.3,2.4
			c-2.5,0-4.6-0.9-6.3-2.6c-1.7-1.7-2.6-3.6-2.6-5.8c0-1.6,0.4-3.1,1.2-4.5c0.8-1.4,1.9-2.5,3.2-3.3
			C378,400,379.5,399.6,381.1,399.6z M381.1,401.3c-1.2,0-2.4,0.3-3.5,1c-1.1,0.6-2,1.5-2.6,2.6c-0.6,1.1-0.9,2.3-0.9,3.7
			c0,2,0.7,3.6,2.1,4.9c1.4,1.2,3.1,1.9,5,1.9c1.3,0,2.5-0.3,3.6-1c1.1-0.6,2-1.5,2.6-2.6c0.6-1.1,0.9-2.2,0.9-3.3
			c0-1.3-0.3-2.5-0.9-3.6c-0.6-1.1-1.5-2-2.6-2.6C383.6,401.6,382.4,401.3,381.1,401.3z"/>
		<path class="st2" d="M417.6,399.9h1.7v15.3h6.5v1.6h-8.2V399.9z"/>
		<path class="st2" d="M452.8,399.7h1.7v10.2c0,1.2,0,2,0.1,2.3c0.1,0.7,0.3,1.2,0.6,1.7c0.3,0.4,0.8,0.8,1.4,1.1
			c0.6,0.3,1.3,0.4,1.9,0.4c0.6,0.1,1.3,0.1,2.3-0.1c1-0.2,1.6-0.6,2-1.1c0.3-0.5,0.6-1,0.8-1.6c0.1-0.4,0.2-1.3,0.2-2.6v-10.2h1.7
			v10.2c0,1.5-0.1,2.7-0.4,3.7c-0.3,0.9-0.9,1.7-1.8,2.4c-0.9,0.7-2.4,1-4.6,1c-1.4,0-2.5-0.3-3.5-1c-1-0.7-1.6-1.5-1.9-2.6
			c-0.2-0.7-0.3-1.9-0.3-3.6V399.7z"/>
		<path class="st2" d="M491.8,401.6v-1.6h9.3v1.6h-3.8v15.2h-1.7v-15.2H491.8z"/>
		<path class="st2" d="M527.5,399.9h1.7v16.9h-1.7V399.9z"/>
		<path class="st2" d="M565.3,399.6c2.5,0,4.7,0.9,6.4,2.6c1.7,1.7,2.6,3.8,2.6,6.3c0,2.5-0.9,4.5-2.6,6.1c-1.7,1.6-3.8,2.4-6.3,2.4
			c-2.5,0-4.6-0.9-6.3-2.6c-1.7-1.7-2.6-3.6-2.6-5.8c0-1.6,0.4-3.1,1.2-4.5c0.8-1.4,1.9-2.5,3.2-3.3
			C562.3,400,563.7,399.6,565.3,399.6z M565.4,401.3c-1.2,0-2.4,0.3-3.5,1c-1.1,0.6-2,1.5-2.6,2.6c-0.6,1.1-0.9,2.3-0.9,3.7
			c0,2,0.7,3.6,2.1,4.9c1.4,1.2,3.1,1.9,5,1.9c1.3,0,2.5-0.3,3.6-1c1.1-0.6,2-1.5,2.6-2.6c0.6-1.1,0.9-2.2,0.9-3.3
			c0-1.3-0.3-2.5-0.9-3.6c-0.6-1.1-1.5-2-2.6-2.6C567.9,401.6,566.7,401.3,565.4,401.3z"/>
		<path class="st2" d="M642.1,413.4l1.4-0.9c1,1.9,2.2,2.8,3.5,2.8c0.6,0,1.1-0.1,1.6-0.4c0.5-0.3,0.9-0.6,1.1-1.1
			c0.3-0.4,0.4-0.9,0.4-1.4c0-0.6-0.2-1.1-0.6-1.7c-0.5-0.8-1.5-1.5-2.9-2.3c-1.4-1.1-2.3-1.8-2.6-2.3c-0.6-0.8-0.9-1.7-0.9-2.6
			c0-0.7,0.2-1.4,0.5-2c0.3-0.6,0.8-1.1,1.5-1.4c0.6-0.4,1.3-0.5,2.1-0.5c0.8,0,1.5,0.2,2.2,0.6c0.7,0.4,1.4,1.1,2.2,2.2l-1.4,1
			c-0.6-0.8-1.2-1.4-1.6-1.7c-0.4-0.3-0.9-0.4-1.5-0.4c-0.7,0-1.2,0.2-1.7,0.6c-0.4,0.4-0.6,0.9-0.6,1.5c0,0.4,0.1,0.7,0.2,1.1
			c0.2,0.3,0.4,0.7,0.8,1.1c0.2,0.2,0.9,0.8,2.2,1.7c1.5,1.1,2.5,2,3,2.7c0.5,0.7,0.8,1.5,0.8,2.3c0,1.2-0.5,2.3-1.4,3.2
			c-0.9,0.9-2.1,1.4-3.4,1.4c-1,0-2-0.3-2.8-0.8C643.6,415.6,642.8,414.7,642.1,413.4z"/>
		<path class="st2" d="M601.9,416.8v-16.9h0.4l11.2,12.9v-12.9h1.7v16.9h-0.4l-11.1-12.8v12.8H601.9z"/>
	</g>
	<g>
		<g>
			<g>
				<g>
					<linearGradient id="SVGID_2_" gradientUnits="userSpaceOnUse" x1="293.6419" y1="345.9096" x2="379.3863" y2="345.9096">
						<stop  offset="0.1667" style="stop-color:#2076B9"/>
						<stop  offset="0.3196" style="stop-color:#2178BA"/>
						<stop  offset="0.4722" style="stop-color:#2580BA"/>
						<stop  offset="0.6247" style="stop-color:#2C8CBA"/>
						<stop  offset="0.7772" style="stop-color:#3B9CB8"/>
						<stop  offset="0.9283" style="stop-color:#4FB1B0"/>
						<stop  offset="1" style="stop-color:#5ABCAA"/>
					</linearGradient>
					<path class="st3" d="M300,377.3c-5.8-6.4-7.6-16.4-5.5-29.8l6.8-42.7h20.8l-6.7,41.7c-1.2,7.7-0.5,13.1,2.1,16.4
						c2.6,3.3,6.7,4.9,12.3,4.9c5.8,0,10.6-1.7,14.2-5.2c3.6-3.5,6-8.8,7.2-16.1l6.7-41.7h21.4l-6.9,43c-1.2,8.1-3.9,15.2-7.9,21.1
						c-4,5.9-9.3,10.4-15.7,13.5c-6.4,3.1-13.9,4.7-22.3,4.7C314.6,387,305.8,383.8,300,377.3z"/>
				</g>
				<g>
					<path d="M300,377.3c-5.8-6.4-7.6-16.4-5.5-29.8l6.8-42.7h20.8l-6.7,41.7c-1.2,7.7-0.5,13.1,2.1,16.4c2.6,3.3,6.7,4.9,12.3,4.9
						c5.8,0,10.6-1.7,14.2-5.2c3.6-3.5,6-8.8,7.2-16.1l6.7-41.7h21.4l-6.9,43c-1.2,8.1-3.9,15.2-7.9,21.1c-4,5.9-9.3,10.4-15.7,13.5
						c-6.4,3.1-13.9,4.7-22.3,4.7C314.6,387,305.8,383.8,300,377.3z"/>
				</g>
			</g>
			<g>
				<g>
					<linearGradient id="SVGID_3_" gradientUnits="userSpaceOnUse" x1="455.0437" y1="344.8153" x2="517.4597" y2="344.8153">
						<stop  offset="0.1667" style="stop-color:#2076B9"/>
						<stop  offset="0.3196" style="stop-color:#2178BA"/>
						<stop  offset="0.4722" style="stop-color:#2580BA"/>
						<stop  offset="0.6247" style="stop-color:#2C8CBA"/>
						<stop  offset="0.7772" style="stop-color:#3B9CB8"/>
						<stop  offset="0.9283" style="stop-color:#4FB1B0"/>
						<stop  offset="1" style="stop-color:#5ABCAA"/>
					</linearGradient>
					<path class="st4" d="M467.7,304.8h21l-9.9,62.3h38.7l-2.8,17.7H455L467.7,304.8z"/>
				</g>
				<g>
					<path d="M467.7,304.8h21l-9.9,62.3h38.7l-2.8,17.7H455L467.7,304.8z"/>
				</g>
			</g>
			<g>
				<g>
					<linearGradient id="SVGID_4_" gradientUnits="userSpaceOnUse" x1="522.4099" y1="344.8153" x2="555.9203" y2="344.8153">
						<stop  offset="0.1667" style="stop-color:#2076B9"/>
						<stop  offset="0.3196" style="stop-color:#2178BA"/>
						<stop  offset="0.4722" style="stop-color:#2580BA"/>
						<stop  offset="0.6247" style="stop-color:#2C8CBA"/>
						<stop  offset="0.7772" style="stop-color:#3B9CB8"/>
						<stop  offset="0.9283" style="stop-color:#4FB1B0"/>
						<stop  offset="1" style="stop-color:#5ABCAA"/>
					</linearGradient>
					<path class="st5" d="M535.1,304.8h20.8l-12.7,80h-20.8L535.1,304.8z"/>
				</g>
				<g>
					<path d="M535.1,304.8h20.8l-12.7,80h-20.8L535.1,304.8z"/>
				</g>
			</g>
			<g>
				<g>
					<linearGradient id="SVGID_5_" gradientUnits="userSpaceOnUse" x1="558.6832" y1="344.8153" x2="633.536" y2="344.8153">
						<stop  offset="0.1667" style="stop-color:#2076B9"/>
						<stop  offset="0.3196" style="stop-color:#2178BA"/>
						<stop  offset="0.4722" style="stop-color:#2580BA"/>
						<stop  offset="0.6247" style="stop-color:#2C8CBA"/>
						<stop  offset="0.7772" style="stop-color:#3B9CB8"/>
						<stop  offset="0.9283" style="stop-color:#4FB1B0"/>
						<stop  offset="1" style="stop-color:#5ABCAA"/>
					</linearGradient>
					<path class="st6" d="M584.2,321h-25.6l2.6-16.2h72.2l-2.6,16.2h-25.6l-10,63.8h-21.1L584.2,321z"/>
				</g>
				<g>
					<path d="M584.2,321h-25.6l2.6-16.2h72.2l-2.6,16.2h-25.6l-10,63.8h-21.1L584.2,321z"/>
				</g>
			</g>
			<g>
				<g>
					<linearGradient id="SVGID_6_" gradientUnits="userSpaceOnUse" x1="624.091" y1="344.8153" x2="700.9009" y2="344.8153">
						<stop  offset="0.1667" style="stop-color:#2076B9"/>
						<stop  offset="0.3196" style="stop-color:#2178BA"/>
						<stop  offset="0.4722" style="stop-color:#2580BA"/>
						<stop  offset="0.6247" style="stop-color:#2C8CBA"/>
						<stop  offset="0.7772" style="stop-color:#3B9CB8"/>
						<stop  offset="0.9283" style="stop-color:#4FB1B0"/>
						<stop  offset="1" style="stop-color:#5ABCAA"/>
					</linearGradient>
					<path class="st7" d="M641.7,361.1l-17.6-56.3h21.7l9.6,36.7l23.1-36.7h22.5l-37.4,54.5l-4.1,25.6H638L641.7,361.1z"/>
				</g>
				<g>
					<path d="M641.7,361.1l-17.6-56.3h21.7l9.6,36.7l23.1-36.7h22.5l-37.4,54.5l-4.1,25.6H638L641.7,361.1z"/>
				</g>
			</g>
			<g>
				<g>
					<linearGradient id="SVGID_7_" gradientUnits="userSpaceOnUse" x1="201.2971" y1="345.8326" x2="284.3408" y2="345.8326">
						<stop  offset="0.1667" style="stop-color:#2076B9"/>
						<stop  offset="0.3196" style="stop-color:#2178BA"/>
						<stop  offset="0.4722" style="stop-color:#2580BA"/>
						<stop  offset="0.6247" style="stop-color:#2C8CBA"/>
						<stop  offset="0.7772" style="stop-color:#3B9CB8"/>
						<stop  offset="0.9283" style="stop-color:#4FB1B0"/>
						<stop  offset="1" style="stop-color:#5ABCAA"/>
					</linearGradient>
					<path class="st8" d="M270.4,379.7l4,7.2l-25.7,0.1l-1.9-3.6h-24.6c-16.2,0.1-22.9-12.9-20.2-39c2.5-26.4,12.4-39.6,29.5-39.8
						l29.8,0.1c17.9-0.3,25.4,12.4,22.6,38.2C282.4,362.7,278,375,270.4,379.7z M222.8,356.8c1.1,3.5,3.3,5.6,6.7,6.2L251,363
						c3.6-0.4,6.2-2,7.7-4.9c1.8-2.1,3-7.1,3.7-15s0.1-13-1.6-15.2c-1.7-2.3-4.4-3.6-8-3.9h-16.5c-4.8,0.4-8.2,2.7-10.2,6.9
						c-1.3,2-2.4,6.5-3.1,13.4C222.2,351.2,222.1,355.4,222.8,356.8z"/>
				</g>
				<g>
					<path d="M270.4,379.7l4,7.2l-25.7,0.1l-1.9-3.6h-24.6c-16.2,0.1-22.9-12.9-20.2-39c2.5-26.4,12.4-39.6,29.5-39.8l29.8,0.1
						c17.9-0.3,25.4,12.4,22.6,38.2C282.4,362.7,278,375,270.4,379.7z M222.8,356.8c1.1,3.5,3.3,5.6,6.7,6.2L251,363
						c3.6-0.4,6.2-2,7.7-4.9c1.8-2.1,3-7.1,3.7-15s0.1-13-1.6-15.2c-1.7-2.3-4.4-3.6-8-3.9h-16.5c-4.8,0.4-8.2,2.7-10.2,6.9
						c-1.3,2-2.4,6.5-3.1,13.4C222.2,351.2,222.1,355.4,222.8,356.8z"/>
				</g>
			</g>
			<g>
				<g>
					<polygon class="st9" points="436.6,304.9 408.6,304.9 369.4,384.8 391.9,384.8 405.3,353.9 418.7,326 423.5,353.9 428.6,384.8 
						450.1,384.8 					"/>
					<polyline class="st10" points="414.5,356.9 401.1,384.8 419.3,384.8 					"/>
				</g>
				<g>
					<polygon points="436.6,304.9 408.6,304.9 369.4,384.8 391.9,384.8 405.3,353.9 418.7,326 423.5,353.9 428.6,384.8 450.1,384.8 
											"/>
					<polyline points="414.5,356.9 401.1,384.8 419.3,384.8 					"/>
				</g>
			</g>
		</g>
		<g>
			<g>
				<g>
					<path class="st11" d="M300,377.3c-5.8-6.4-7.6-16.4-5.5-29.8l6.8-42.7h20.8l-6.7,41.7c-1.2,7.7-0.5,13.1,2.1,16.4
						c2.6,3.3,6.7,4.9,12.3,4.9c5.8,0,10.6-1.7,14.2-5.2c3.6-3.5,6-8.8,7.2-16.1l6.7-41.7h21.4l-6.9,43c-1.2,8.1-3.9,15.2-7.9,21.1
						c-4,5.9-9.3,10.4-15.7,13.5c-6.4,3.1-13.9,4.7-22.3,4.7C314.6,387,305.8,383.8,300,377.3z"/>
				</g>
				<g>
					<path class="st11" d="M300,377.3c-5.8-6.4-7.6-16.4-5.5-29.8l6.8-42.7h20.8l-6.7,41.7c-1.2,7.7-0.5,13.1,2.1,16.4
						c2.6,3.3,6.7,4.9,12.3,4.9c5.8,0,10.6-1.7,14.2-5.2c3.6-3.5,6-8.8,7.2-16.1l6.7-41.7h21.4l-6.9,43c-1.2,8.1-3.9,15.2-7.9,21.1
						c-4,5.9-9.3,10.4-15.7,13.5c-6.4,3.1-13.9,4.7-22.3,4.7C314.6,387,305.8,383.8,300,377.3z"/>
				</g>
				<g>
					<path class="st11" d="M300,377.3c-5.8-6.4-7.6-16.4-5.5-29.8l6.8-42.7h20.8l-6.7,41.7c-1.2,7.7-0.5,13.1,2.1,16.4
						c2.6,3.3,6.7,4.9,12.3,4.9c5.8,0,10.6-1.7,14.2-5.2c3.6-3.5,6-8.8,7.2-16.1l6.7-41.7h21.4l-6.9,43c-1.2,8.1-3.9,15.2-7.9,21.1
						c-4,5.9-9.3,10.4-15.7,13.5c-6.4,3.1-13.9,4.7-22.3,4.7C314.6,387,305.8,383.8,300,377.3z"/>
				</g>
			</g>
			<g>
				<g>
					<path class="st11" d="M467.7,304.8h21l-9.9,62.3h38.7l-2.8,17.7H455L467.7,304.8z"/>
				</g>
				<g>
					<path class="st11" d="M467.7,304.8h21l-9.9,62.3h38.7l-2.8,17.7H455L467.7,304.8z"/>
				</g>
				<g>
					<path class="st11" d="M467.7,304.8h21l-9.9,62.3h38.7l-2.8,17.7H455L467.7,304.8z"/>
				</g>
			</g>
			<g>
				<g>
					<path class="st11" d="M535.1,304.8h20.8l-12.7,80h-20.8L535.1,304.8z"/>
				</g>
				<g>
					<path class="st11" d="M535.1,304.8h20.8l-12.7,80h-20.8L535.1,304.8z"/>
				</g>
				<g>
					<path class="st11" d="M535.1,304.8h20.8l-12.7,80h-20.8L535.1,304.8z"/>
				</g>
			</g>
			<g>
				<g>
					<path class="st11" d="M584.2,321h-25.6l2.6-16.2h72.2l-2.6,16.2h-25.6l-10,63.8h-21.1L584.2,321z"/>
				</g>
				<g>
					<path class="st11" d="M584.2,321h-25.6l2.6-16.2h72.2l-2.6,16.2h-25.6l-10,63.8h-21.1L584.2,321z"/>
				</g>
				<g>
					<path class="st11" d="M584.2,321h-25.6l2.6-16.2h72.2l-2.6,16.2h-25.6l-10,63.8h-21.1L584.2,321z"/>
				</g>
			</g>
			<g>
				<g>
					<path class="st11" d="M641.7,361.1l-17.6-56.3h21.7l9.6,36.7l23.1-36.7h22.5l-37.4,54.5l-4.1,25.6H638L641.7,361.1z"/>
				</g>
				<g>
					<path class="st11" d="M641.7,361.1l-17.6-56.3h21.7l9.6,36.7l23.1-36.7h22.5l-37.4,54.5l-4.1,25.6H638L641.7,361.1z"/>
				</g>
				<g>
					<path class="st11" d="M641.7,361.1l-17.6-56.3h21.7l9.6,36.7l23.1-36.7h22.5l-37.4,54.5l-4.1,25.6H638L641.7,361.1z"/>
				</g>
			</g>
			<g>
				<g>
					<path class="st11" d="M270.4,379.7l4,7.2l-25.7,0.1l-1.9-3.6h-24.6c-16.2,0.1-22.9-12.9-20.2-39c2.5-26.4,12.4-39.6,29.5-39.8
						l29.8,0.1c17.9-0.3,25.4,12.4,22.6,38.2C282.4,362.7,278,375,270.4,379.7z M222.8,356.8c1.1,3.5,3.3,5.6,6.7,6.2L251,363
						c3.6-0.4,6.2-2,7.7-4.9c1.8-2.1,3-7.1,3.7-15s0.1-13-1.6-15.2c-1.7-2.3-4.4-3.6-8-3.9h-16.5c-4.8,0.4-8.2,2.7-10.2,6.9
						c-1.3,2-2.4,6.5-3.1,13.4C222.2,351.2,222.1,355.4,222.8,356.8z"/>
				</g>
				<g>
					<path class="st11" d="M270.4,379.7l4,7.2l-25.7,0.1l-1.9-3.6h-24.6c-16.2,0.1-22.9-12.9-20.2-39c2.5-26.4,12.4-39.6,29.5-39.8
						l29.8,0.1c17.9-0.3,25.4,12.4,22.6,38.2C282.4,362.7,278,375,270.4,379.7z M222.8,356.8c1.1,3.5,3.3,5.6,6.7,6.2L251,363
						c3.6-0.4,6.2-2,7.7-4.9c1.8-2.1,3-7.1,3.7-15s0.1-13-1.6-15.2c-1.7-2.3-4.4-3.6-8-3.9h-16.5c-4.8,0.4-8.2,2.7-10.2,6.9
						c-1.3,2-2.4,6.5-3.1,13.4C222.2,351.2,222.1,355.4,222.8,356.8z"/>
				</g>
				<g>
					<path class="st11" d="M270.4,379.7l4,7.2l-25.7,0.1l-1.9-3.6h-24.6c-16.2,0.1-22.9-12.9-20.2-39c2.5-26.4,12.4-39.6,29.5-39.8
						l29.8,0.1c17.9-0.3,25.4,12.4,22.6,38.2C282.4,362.7,278,375,270.4,379.7z M222.8,356.8c1.1,3.5,3.3,5.6,6.7,6.2L251,363
						c3.6-0.4,6.2-2,7.7-4.9c1.8-2.1,3-7.1,3.7-15s0.1-13-1.6-15.2c-1.7-2.3-4.4-3.6-8-3.9h-16.5c-4.8,0.4-8.2,2.7-10.2,6.9
						c-1.3,2-2.4,6.5-3.1,13.4C222.2,351.2,222.1,355.4,222.8,356.8z"/>
				</g>
			</g>
			<g>
				<g>
					<polygon class="st11" points="436.6,304.9 408.6,304.9 369.4,384.8 391.9,384.8 405.3,353.9 418.7,326 423.5,353.9 
						428.6,384.8 450.1,384.8 					"/>
					<polyline class="st11" points="414.5,356.9 401.1,384.8 419.3,384.8 					"/>
				</g>
				<g>
					<polygon class="st11" points="436.6,304.9 408.6,304.9 369.4,384.8 391.9,384.8 405.3,353.9 418.7,326 423.5,353.9 
						428.6,384.8 450.1,384.8 					"/>
					<polyline class="st11" points="414.5,356.9 401.1,384.8 419.3,384.8 					"/>
				</g>
				<g>
					<polygon class="st11" points="436.6,304.9 408.6,304.9 369.4,384.8 391.9,384.8 405.3,353.9 418.7,326 423.5,353.9 
						428.6,384.8 450.1,384.8 					"/>
					<polyline class="st11" points="414.5,356.9 401.1,384.8 419.3,384.8 					"/>
				</g>
			</g>
		</g>
	</g>
</g>
<g class="st12">
	<linearGradient id="SVGID_8_" gradientUnits="userSpaceOnUse" x1="306.8631" y1="551.2168" x2="356.0247" y2="551.2168">
		<stop  offset="0.1667" style="stop-color:#2076B9"/>
		<stop  offset="0.3196" style="stop-color:#2178BA"/>
		<stop  offset="0.4722" style="stop-color:#2580BA"/>
		<stop  offset="0.6247" style="stop-color:#2C8CBA"/>
		<stop  offset="0.7772" style="stop-color:#3B9CB8"/>
		<stop  offset="0.9283" style="stop-color:#4FB1B0"/>
		<stop  offset="1" style="stop-color:#5ABCAA"/>
	</linearGradient>
	<path class="st13" d="M330.7,526.9h17.1l8.2,48.7h-13.1l-1.7-9.7h-16.3l-4.3,9.7h-13.7L330.7,526.9z M339.8,556.7l-2.9-17l-8.1,17
		H339.8z"/>
</g>
<g class="st12">
	<linearGradient id="SVGID_9_" gradientUnits="userSpaceOnUse" x1="145.5603" y1="551.2064" x2="196.252" y2="551.2064">
		<stop  offset="0" style="stop-color:#74B13C"/>
		<stop  offset="0.2351" style="stop-color:#82B833"/>
		<stop  offset="0.624" style="stop-color:#91BF25"/>
		<stop  offset="1" style="stop-color:#95C11F"/>
	</linearGradient>
	<polygon class="st14" points="169.7,526.9 169.7,526.9 169.6,526.9 169.6,527 153,527 151.6,536.8 145.6,575.4 158.3,575.4 
		163.5,542.5 167.2,542.5 181.1,552 164.3,561.1 162,575.6 194.5,557.6 196.3,546.3 180.2,534.6 	"/>
	<linearGradient id="SVGID_10_" gradientUnits="userSpaceOnUse" x1="102.7684" y1="551.2064" x2="149.4272" y2="551.2064">
		<stop  offset="0.1667" style="stop-color:#2076B9"/>
		<stop  offset="0.3196" style="stop-color:#2178BA"/>
		<stop  offset="0.4722" style="stop-color:#2580BA"/>
		<stop  offset="0.6247" style="stop-color:#2C8CBA"/>
		<stop  offset="0.7772" style="stop-color:#3B9CB8"/>
		<stop  offset="0.9283" style="stop-color:#4FB1B0"/>
		<stop  offset="1" style="stop-color:#5ABCAA"/>
	</linearGradient>
	<polygon class="st15" points="134,544.7 131.6,559.7 117.9,550.4 134.6,541.2 147.2,541.2 147.4,539.8 147.4,539.8 149.4,527 
		136.9,527 136.9,526.9 104.5,544.7 102.8,556.1 129.2,575.4 129.1,575.5 141.8,575.5 146.6,544.7 	"/>
</g>
<g>
	<path class="st16" d="M242.6,275.9c-2.5,4.8-4.1,9.4-7.2,13.7c-0.7,0.9-2.4,1-3.7,1c-5.4,0.1-10.9,0.2-16.3,0
		c-3.5-0.1-5.6,1.1-7.4,4.2c-17.7,30.4-33.1,62.2-53.3,91c-0.2,0.3-0.4,0.5-0.8,1c-2.8-5-5.7-9.9-8.2-14.9c-0.6-1.3-0.4-3.5,0.3-4.8
		c14.3-25.2,28.7-50.3,43.1-75.5c2.3-4,4.6-8.1,6.7-12.2c1.3-2.6,3.1-3.4,5.9-3.3c11.8,0.1,23.6-0.1,35.4-0.2"/>
	<linearGradient id="SVGID_11_" gradientUnits="userSpaceOnUse" x1="165.5881" y1="557.6329" x2="215.4338" y2="557.6329">
		<stop  offset="0" style="stop-color:#74B13C"/>
		<stop  offset="0.2351" style="stop-color:#82B833"/>
		<stop  offset="0.624" style="stop-color:#91BF25"/>
		<stop  offset="1" style="stop-color:#95C11F"/>
	</linearGradient>
	<path class="st17" d="M190.5,536.3c8.4,14.4,16.6,28.4,24.9,42.7c-16.5,0-32.8,0-49.8,0c2-3.6,3.7-6.8,5.8-9.8c0.4-0.6,2-0.8,3-0.8
		c7-0.1,14,0,21.8,0c-2.2-3.9-4.1-7.3-6.1-10.6c-1.1-1.9-2.6-3.6-3.8-5.4c-3.3-4.9-3-6.6,2-13.4
		C188.9,538.2,189.5,537.5,190.5,536.3z"/>
	<path class="st10" d="M91.7,276.2c23.4,0,45.8,0,69.3,0c-2.8,5-5.2,9.5-8,13.7c-0.5,0.8-2.5,1-3.7,1.1c-8.5,0.1-17.1,0-25.6,0.1
		c-1.5,0-3,0.1-5.5,0.3c4.2,7,8,13.3,11.9,19.5c6.8,10.6,6.9,10.8-0.8,21.3c-0.8,1.1-1.7,2.1-3.2,3.9
		C114.7,316,103.4,296.5,91.7,276.2z"/>
	<path class="st16" d="M176.5,298.1c-12.2,21.1-23.8,41.3-36,62.4c-3.3-5.8-6.4-10.8-9.1-16.1c-0.4-0.7,0.4-2.3,1-3.3
		c7.9-13.5,15.8-26.9,23.9-40.3c0.8-1.4,3-2.5,4.7-2.7C165.7,297.9,170.5,298.1,176.5,298.1z"/>
	<path class="st16" d="M161.1,291c2.9-5.1,5.2-9.4,7.8-13.6c0.5-0.8,2.1-1.4,3.1-1.4c5.4-0.1,10.8-0.1,17.2-0.1
		c-2.9,5.1-5.4,9.6-8.1,14c-0.4,0.7-1.9,1-2.8,1.1C172.9,291.1,167.5,291,161.1,291z"/>
</g>
<g class="st18">
	<linearGradient id="SVGID_12_" gradientUnits="userSpaceOnUse" x1="499.0039" y1="310.6094" x2="765.5876" y2="310.6094">
		<stop  offset="0.1667" style="stop-color:#2076B9"/>
		<stop  offset="0.3196" style="stop-color:#2178BA"/>
		<stop  offset="0.4722" style="stop-color:#2580BA"/>
		<stop  offset="0.6247" style="stop-color:#2C8CBA"/>
		<stop  offset="0.7772" style="stop-color:#3B9CB8"/>
		<stop  offset="0.9283" style="stop-color:#4FB1B0"/>
		<stop  offset="1" style="stop-color:#5ABCAA"/>
	</linearGradient>
	<path class="st19" d="M765.6,158.5c-6.8,13-13.3,26.2-20.8,38.8c-1.3,2.2-6.5,2.8-10,2.8c-14.8,0.3-29.7,0.5-44.5-0.1
		c-9.5-0.4-15.2,2.9-20.2,11.5c-48.2,83-96.9,165.6-145.5,248.4c-0.4,0.7-1.1,1.3-2.1,2.6c-7.7-13.7-15.7-26.9-22.5-40.7
		c-1.7-3.5-1.2-9.6,0.8-13.1c39-68.7,78.4-137.3,117.6-205.9c6.3-11,12.7-22,18.2-33.4c3.5-7.2,8.4-9.1,16.1-9.1
		c32.2,0.2,64.4-0.2,96.6-0.5c4.6,0,9.1-0.9,13.7-1.4C763.9,158.5,764.7,158.5,765.6,158.5z"/>
	<linearGradient id="SVGID_13_" gradientUnits="userSpaceOnUse" x1="352.6949" y1="242.0561" x2="541.9212" y2="242.0561">
		<stop  offset="0" style="stop-color:#74B13C"/>
		<stop  offset="0.2351" style="stop-color:#82B833"/>
		<stop  offset="0.624" style="stop-color:#91BF25"/>
		<stop  offset="1" style="stop-color:#95C11F"/>
	</linearGradient>
	<path class="st20" d="M352.7,160.6c63.8,0,125.1,0,189.2,0c-7.8,13.6-14.3,25.8-21.8,37.5c-1.5,2.3-6.7,2.8-10.2,2.9
		c-23.3,0.2-46.6,0.1-69.8,0.2c-4.1,0-8.1,0.4-15,0.7c11.6,19,21.7,36.3,32.5,53.1c18.6,28.9,18.8,29.5-2.2,58
		c-2.2,3-4.7,5.8-8.7,10.6C415.4,269.3,384.6,215.9,352.7,160.6z"/>
	<linearGradient id="SVGID_14_" gradientUnits="userSpaceOnUse" x1="460.6176" y1="305.4823" x2="584.0681" y2="305.4823">
		<stop  offset="0.1667" style="stop-color:#2076B9"/>
		<stop  offset="0.3196" style="stop-color:#2178BA"/>
		<stop  offset="0.4722" style="stop-color:#2580BA"/>
		<stop  offset="0.6247" style="stop-color:#2C8CBA"/>
		<stop  offset="0.7772" style="stop-color:#3B9CB8"/>
		<stop  offset="0.9283" style="stop-color:#4FB1B0"/>
		<stop  offset="1" style="stop-color:#5ABCAA"/>
	</linearGradient>
	<path class="st21" d="M584.1,220.4c-33.2,57.5-65,112.6-98.3,170.3c-9.1-15.7-17.4-29.6-24.9-43.8c-1.1-2,1.2-6.3,2.8-9.1
		c21.6-36.7,43.1-73.5,65.3-109.8c2.3-3.7,8.3-6.9,12.8-7.2C554.8,219.8,567.9,220.4,584.1,220.4z"/>
	<linearGradient id="SVGID_15_" gradientUnits="userSpaceOnUse" x1="541.9918" y1="180.5433" x2="618.7521" y2="180.5433">
		<stop  offset="0.1667" style="stop-color:#2076B9"/>
		<stop  offset="0.3196" style="stop-color:#2178BA"/>
		<stop  offset="0.4722" style="stop-color:#2580BA"/>
		<stop  offset="0.6247" style="stop-color:#2C8CBA"/>
		<stop  offset="0.7772" style="stop-color:#3B9CB8"/>
		<stop  offset="0.9283" style="stop-color:#4FB1B0"/>
		<stop  offset="1" style="stop-color:#5ABCAA"/>
	</linearGradient>
	<path class="st22" d="M542,201.1c7.9-13.9,14.2-25.7,21.3-37c1.4-2.3,5.6-3.9,8.6-3.9c14.7-0.4,29.5-0.2,47-0.2
		c-7.9,13.9-14.7,26.2-22.1,38.1c-1.2,1.9-5.1,2.8-7.7,2.9C574.2,201.2,559.4,201.1,542,201.1z"/>
</g>
<rect x="91.7" y="322.2" class="st23" width="652.2" height="143.8"/>
<text transform="matrix(1 0 0 1 348.6595 464.3093)" class="st24 st25 st26 st27">SOLUTIONS</text>
</svg>
